<svg xmlns="http://www.w3.org/2000/svg" style="transform: none; transform-origin: 50% 50%; cursor: move; max-height: none;" width="666" height="375" viewBox="0 0 6660 3750"><g id="l1M7w7PTkK357HMDzwi5TcU" fill="rgb(0,0,0)" style="transform: none;"><g style="transform: none;">=<path id="pjYfIUD5B" d="M3233 1796 c-61 -15 -116 -54 -140 -99 -23 -44 -23 -170 0 -214 14 -26 15 -33 4 -33 -27 0 -47 -36 -47 -82 0 -55 22 -78 74 -78 56 0 76 15 76 56 0 31 3 35 18 29 30 -13 179 -18 210 -7 29 10 30 9 36 -24 8 -39 30 -54 78 -54 57 0 70 17 66 85 -2 50 -7 62 -24 69 -20 9 -21 11 -7 45 10 24 14 60 11 116 -3 70 -7 86 -30 117 -40 52 -103 79 -196 84 -44 2 -99 -2 -129 -10z m181 -111 c19 -14 19 -15 -8 -15 -54 0 -66 -15 -66 -83 0 -72 6 -85 46 -96 l29 -8 -37 -12 c-29 -9 -46 -10 -80 0 l-43 12 29 8 c16 4 33 14 37 21 13 20 11 132 -3 146 -7 7 -30 12 -52 12 l-41 1 30 14 c41 18 135 18 159 0z m-224 -97 c-1 -26 -3 -30 -10 -16 -6 9 -7 23 -4 32 9 25 14 19 14 -16z m297 -15 c-3 -10 -5 -2 -5 17 0 19 2 27 5 18 2 -10 2 -26 0 -35z"></path></g></g><g id="l2XSqLieQzsm8i08gNH3qwj" fill="rgb(252,71,94)" style="transform: none;"><g style="transform: none;"><path id="p1F3QdiyZ1" d="M2578 2654 c-31 -16 -35 -31 -15 -57 11 -15 15 -15 41 -2 38 20 79 19 99 -3 23 -26 23 -57 0 -47 -64 28 -133 1 -159 -60 -19 -47 -18 -81 7 -131 16 -34 29 -46 63 -59 38 -15 47 -15 78 -2 24 10 39 12 46 5 5 -5 20 -8 33 -6 24 3 24 5 27 135 3 152 -7 191 -60 223 -40 24 -120 26 -160 4z m126 -180 c22 -22 24 -77 4 -101 -15 -18 -58 -16 -80 4 -22 20 -23 70 -1 95 20 22 56 23 77 2z"></path><path id="pCbvtInx3" d="M2873 2655 c-33 -14 -40 -29 -24 -54 6 -9 18 -12 35 -7 14 3 37 9 51 12 31 8 75 -19 75 -46 0 -23 -12 -25 -42 -9 -15 8 -31 8 -59 0 -96 -29 -118 -168 -38 -236 41 -34 72 -40 110 -21 23 12 36 13 45 5 7 -6 23 -9 36 -7 23 3 23 4 23 149 0 159 -6 184 -55 212 -34 21 -113 22 -157 2z m114 -173 c38 -24 32 -115 -9 -125 -27 -7 -64 7 -72 28 -25 66 29 130 81 97z"></path><path id="pGxy9A560" d="M3134 2655 c-9 -23 3 -45 26 -45 12 0 25 -10 32 -25 11 -25 1 -59 -64 -214 -26 -63 -24 -81 11 -81 36 0 42 9 71 93 13 37 28 66 32 65 5 -2 19 -33 32 -69 13 -37 26 -71 30 -78 11 -17 66 -14 66 4 0 13 -28 93 -97 283 -9 24 -27 52 -41 62 -30 24 -90 27 -98 5z"></path><path id="pXjvtavbq" d="M2144 2557 c-2 -7 -3 -89 -2 -182 l3 -170 78 -3 c129 -5 194 44 182 138 -8 67 -43 97 -125 107 l-65 8 3 35 c5 60 -5 80 -39 80 -16 0 -32 -6 -35 -13z m176 -196 c25 -48 6 -78 -55 -88 -44 -7 -55 5 -55 58 0 45 4 49 56 49 33 0 46 -5 54 -19z"></path><path id="p106Exjq8D" d="M2442 2562 c-9 -7 -12 -41 -10 -138 l3 -129 35 0 35 0 3 129 c3 133 -1 146 -38 146 -8 0 -21 -4 -28 -8z"></path><path id="pscuPySh8" d="M3493 2558 c-4 -7 -7 -91 -5 -185 l4 -173 79 0 c48 0 94 6 117 16 60 23 81 89 43 135 -18 22 -18 23 8 45 21 18 25 30 25 64 -2 77 -60 109 -200 110 -38 0 -65 -5 -71 -12z m188 -79 c25 -40 -7 -71 -70 -67 -42 3 -46 5 -49 31 -6 52 3 60 59 55 28 -3 55 -12 60 -19z m-19 -146 c38 -34 6 -67 -60 -61 -30 2 -38 7 -40 26 -2 13 -1 30 2 38 8 20 75 18 98 -3z"></path><path id="p4QLYSb9h" d="M3808 2540 c-26 -26 -30 -36 -25 -66 3 -19 12 -40 19 -48 18 -17 82 -38 110 -36 37 3 39 1 27 -21 -10 -19 -16 -21 -71 -15 l-59 7 3 -28 c2 -23 10 -29 47 -40 62 -18 115 -3 141 40 16 26 20 50 20 129 0 104 -4 111 -51 98 -15 -5 -33 -4 -40 1 -8 5 -31 9 -52 9 -30 0 -46 -7 -69 -30z m132 -51 c23 -41 -13 -64 -61 -39 -19 10 -26 40 -12 53 15 16 63 6 73 -14z"></path><path id="p1CR47Ne2h" d="M4063 2564 c-10 -4 -13 -41 -13 -135 l0 -129 25 -6 c14 -3 31 -1 39 5 10 8 21 7 45 -5 42 -21 95 -4 122 40 16 26 19 47 17 131 l-3 100 -35 0 -35 0 -5 -100 -5 -100 -31 -3 c-17 -2 -36 3 -42 11 -6 7 -12 53 -14 103 -3 87 -4 89 -28 91 -14 1 -31 -1 -37 -3z"></path><path id="p11z1X0oFl" d="M4337 2563 c-4 -3 -7 -89 -7 -189 l0 -184 24 -6 c14 -3 30 -3 35 1 7 3 11 45 11 101 0 52 3 94 7 94 4 0 26 -20 49 -45 31 -34 48 -45 71 -45 16 0 33 3 36 6 3 4 -14 30 -38 59 -25 29 -45 56 -45 61 0 5 20 36 45 69 25 33 45 65 45 72 0 14 -57 18 -76 5 -6 -4 -25 -29 -43 -56 -38 -55 -51 -49 -51 22 0 39 -2 42 -28 42 -16 0 -32 -3 -35 -7z"></path><path id="p5sYvUl4K" d="M2453 2259 c-46 -17 -20 -84 29 -77 18 2 24 10 26 35 4 37 -20 56 -55 42z"></path><path id="p2a3EJJRT" d="M2650 2062 c-58 -32 -75 -64 -75 -142 0 -63 3 -71 30 -100 33 -35 84 -60 122 -60 35 0 98 35 122 69 26 37 29 139 5 179 -39 66 -136 92 -204 54z m176 -57 c18 -25 24 -44 24 -85 0 -49 -3 -56 -40 -92 -49 -46 -91 -50 -152 -16 -80 45 -90 148 -19 212 49 44 146 35 187 -19z"></path><path id="pZlbMosNM" d="M2649 2001 c-48 -49 -38 -140 21 -174 42 -25 81 -21 120 11 31 26 34 34 34 84 1 36 -4 60 -14 70 -48 48 -118 52 -161 9z m118 -30 c19 -19 12 -44 -15 -56 -22 -10 -31 -35 -12 -35 20 0 9 -25 -15 -37 -23 -10 -26 -9 -42 24 l-17 36 35 28 c31 26 32 28 12 29 -14 0 -23 6 -23 15 0 9 9 15 25 15 14 0 25 6 26 13 0 7 3 6 6 -3 4 -8 12 -21 20 -29z"></path><path id="p4vUxWXbt" d="M3872 2072 c-37 -11 -103 -82 -75 -82 4 0 19 12 34 26 23 22 40 27 96 31 49 4 73 1 87 -10 17 -13 12 -14 -50 -14 -89 0 -153 -30 -154 -71 0 -8 14 -2 37 15 31 24 45 28 103 28 39 0 78 -6 93 -14 30 -16 37 -38 10 -26 -26 11 -128 18 -157 11 -13 -3 -38 -18 -55 -32 -75 -63 -10 -154 109 -154 104 0 157 51 144 138 -3 26 -14 56 -24 67 -10 11 -20 32 -24 47 -9 41 -99 61 -174 40z m174 -148 c19 -13 24 -24 22 -47 -10 -95 -228 -103 -228 -9 0 52 60 85 138 77 23 -3 54 -12 68 -21z"></path><path id="pai5CQGEX" d="M3917 1920 c-63 -19 -76 -60 -27 -85 67 -35 159 -8 160 47 0 32 -80 55 -133 38z m62 -19 c40 -25 3 -83 -39 -61 -25 13 -25 19 -2 37 9 8 11 12 5 8 -14 -6 -18 7 -6 18 9 9 25 8 42 -2z"></path><path id="p1FIwYIuct" d="M2965 2048 c-3 -13 -7 -60 -9 -105 -5 -80 -6 -84 -49 -137 -25 -30 -54 -80 -66 -110 -39 -104 -23 -262 37 -361 18 -29 18 -30 -6 -73 -20 -35 -26 -63 -30 -137 -2 -51 -2 -105 2 -120 7 -28 8 -28 74 -22 95 8 162 31 209 72 l41 35 80 -12 c58 -9 104 -9 164 -2 80 10 84 10 112 -13 43 -36 85 -55 151 -69 76 -17 128 -17 143 -2 28 28 8 221 -28 281 -18 29 -18 30 11 91 16 33 32 78 35 99 6 34 9 37 39 37 19 0 39 -8 50 -20 15 -16 15 -20 3 -20 -23 0 -58 -43 -58 -72 0 -30 28 -58 58 -58 22 0 62 32 62 50 0 6 7 10 15 10 8 0 15 -4 15 -10 0 -5 7 -7 15 -4 25 10 17 32 -25 75 -22 23 -40 45 -40 50 0 13 -47 41 -82 48 -30 6 -33 10 -44 72 -15 80 -44 140 -95 196 l-39 43 0 89 c0 49 -3 96 -6 105 -10 26 -59 20 -78 -9 -21 -32 -33 -31 -58 1 -14 17 -28 24 -46 22 -25 -3 -32 -14 -46 -78 l-5 -25 -138 1 -138 1 -7 42 c-9 55 -14 61 -49 61 -22 0 -32 -7 -41 -25 -6 -14 -17 -25 -24 -25 -8 0 -21 11 -30 25 -22 34 -71 35 -79 3z m493 -300 c59 -28 94 -77 100 -139 9 -96 -36 -163 -136 -202 -108 -43 -246 5 -297 102 -22 43 -22 118 -1 159 50 97 215 137 334 80z m-304 -344 c43 -42 -10 -109 -54 -69 -24 22 -25 42 -3 67 20 22 37 23 57 2z m414 4 c19 -19 15 -66 -8 -78 -42 -23 -82 29 -53 69 16 23 43 27 61 9z m386 3 c3 -4 -1 -17 -9 -27 -16 -23 -40 -7 -29 19 7 18 29 23 38 8z m-968 -200 c11 -10 39 -30 62 -45 27 -17 39 -31 36 -40 -8 -21 -86 -57 -135 -63 l-41 -6 7 49 c8 54 33 124 44 124 4 0 16 -8 27 -19z m732 6 c10 -11 41 -126 42 -149 0 -29 -167 27 -177 59 -2 6 16 25 40 41 24 17 49 37 56 46 16 19 25 20 39 3z"></path><path id="prRY60Vh" d="M3280 1731 c-145 -31 -187 -164 -80 -254 83 -71 231 -58 292 24 58 78 42 157 -43 211 -30 19 -120 29 -169 19z m8 -103 c26 -26 5 -108 -28 -108 -12 0 -40 41 -40 60 0 21 28 60 44 60 6 0 17 -5 24 -12z m152 -21 c13 -24 13 -30 0 -54 -19 -33 -33 -38 -54 -18 -22 22 -21 81 2 94 23 14 34 9 52 -22z"></path></g></g></svg>